<?xml version="1.0" encoding="UTF-8" standalone="no"?>
<svg
   xmlns:dc="http://purl.org/dc/elements/1.1/"
   xmlns:cc="http://creativecommons.org/ns#"
   xmlns:rdf="http://www.w3.org/1999/02/22-rdf-syntax-ns#"
   xmlns:svg="http://www.w3.org/2000/svg"
   xmlns="http://www.w3.org/2000/svg"
   xmlns:xlink="http://www.w3.org/1999/xlink"
   xmlns:sodipodi="http://sodipodi.sourceforge.net/DTD/sodipodi-0.dtd"
   xmlns:inkscape="http://www.inkscape.org/namespaces/inkscape"
   width="70"
   height="70"
   viewBox="0 0 18.520857 18.520834"
   version="1.1"
   id="svg8"
   inkscape:version="1.0.1 (3bc2e813f5, 2020-09-07)"
   sodipodi:docname="icon.svg">
  <defs
     id="defs2">
    <radialGradient
       inkscape:collect="always"
       xlink:href="#SVGID_6_"
       id="radialGradient1043"
       gradientUnits="userSpaceOnUse"
       gradientTransform="matrix(-0.9701,-0.2426,-0.2426,0.9701,325.09299,22.993625)"
       cx="18.084"
       cy="21.7896"
       r="4.1399999" />
    <radialGradient
       inkscape:collect="always"
       xlink:href="#SVGID_5_"
       id="radialGradient1045"
       gradientUnits="userSpaceOnUse"
       gradientTransform="matrix(0.9701,-0.2426,0.2426,0.9701,287.79629,22.993625)"
       cx="-7.4453001"
       cy="15.4067"
       r="4.1398001" />
    <radialGradient
       inkscape:collect="always"
       xlink:href="#SVGID_4_"
       id="radialGradient1047"
       gradientUnits="userSpaceOnUse"
       gradientTransform="matrix(1,0,0,-1,272.23079,150.92883)"
       cx="19.375999"
       cy="92.875999"
       r="1.8904999" />
    <radialGradient
       inkscape:collect="always"
       xlink:href="#SVGID_3_"
       id="radialGradient1049"
       gradientUnits="userSpaceOnUse"
       gradientTransform="matrix(0.9995,-0.0318,-0.0318,-0.9995,287.27509,144.16053)"
       cx="16.4897"
       cy="125.5479"
       r="4.2550998" />
    <radialGradient
       inkscape:collect="always"
       xlink:href="#SVGID_2_"
       id="radialGradient1051"
       gradientUnits="userSpaceOnUse"
       gradientTransform="matrix(1,0,0,-1,272.23079,150.92883)"
       cx="24.313999"
       cy="111.9473"
       r="23.358601" />
    <radialGradient
       inkscape:collect="always"
       xlink:href="#SVGID_1_"
       id="radialGradient1053"
       gradientUnits="userSpaceOnUse"
       gradientTransform="matrix(-0.1791,0.9839,0.9839,0.1791,-201.4103,-148.636)"
       cx="113.8604"
       cy="237.0723"
       r="4.2543998" />
  </defs>
  <sodipodi:namedview
     id="base"
     pagecolor="#ffffff"
     bordercolor="#666666"
     borderopacity="1.0"
     inkscape:pageopacity="0.0"
     inkscape:pageshadow="2"
     inkscape:zoom="1.4"
     inkscape:cx="311.96998"
     inkscape:cy="79.397392"
     inkscape:document-units="mm"
     inkscape:current-layer="g915"
     inkscape:document-rotation="0"
     showgrid="false"
     showborder="true"
     inkscape:window-width="1920"
     inkscape:window-height="1043"
     inkscape:window-x="2560"
     inkscape:window-y="0"
     inkscape:window-maximized="1"
     units="px"
     inkscape:showpageshadow="false" />
  <metadata
     id="metadata5">
    <rdf:RDF>
      <cc:Work
         rdf:about="">
        <dc:format>image/svg+xml</dc:format>
        <dc:type
           rdf:resource="http://purl.org/dc/dcmitype/StillImage" />
        <dc:title></dc:title>
      </cc:Work>
    </rdf:RDF>
  </metadata>
  <g
     inkscape:label="Layer 1"
     inkscape:groupmode="layer"
     id="layer1">
    <g
       id="g915"
       transform="matrix(0.25923652,0,0,0.25923652,3.92913,-46.061136)"><g
   id="g1083"
   transform="translate(-273.9365,173.94785)">
  <path
     fill="#c9d3d6"
     stroke="#6c6d6d"
     stroke-width="0.4831"
     d="m 315.01819,55.545525 c -0.819,-2.595 -2.208,-5.122 -3.669,-6.773 -0.605,-0.683 -1.864,-2.423 -2.945,-1.792 -0.896,0.523 -0.309,1.92 0.26,2.536 0.927,1.003 1.497,1.841 2.031,3.088 1.104,2.576 1.225,5.319 1.025,8.119 1.329,-1.21 3.128,-1.357 3.975,0.406 0.228,-1.677 -0.066,-3.649 -0.677,-5.584 z"
     id="path987" />
  <path
     fill="#b3b9ba"
     stroke="#6c6d6d"
     stroke-width="0.4831"
     d="m 312.43819,56.085525 c -0.005,-2.191 -0.817,-4.628 -1.959,-5.627 -0.68,-0.594 -1.831,-1.133 -2.03,0.104 -0.117,0.731 0.781,1.234 1.068,1.844 0.362,0.77 0.345,1.751 0.303,2.581 -0.078,1.529 -0.785,2.086 -1.48,3.344 0.943,0.684 1.832,2.224 2.887,1.312 0.858,-0.745 1.214,-2.097 1.211,-3.558 z"
     id="path989" />
  <path
     fill="#b3b9ba"
     stroke="#6c6d6d"
     stroke-width="0.4831"
     d="m 307.07019,46.985525 c 0.497,-0.479 2.227,-0.603 2.979,-0.731 1.119,1.214 1.271,3.575 0.524,5.106 -0.961,1.971 -2.414,0.713 -3.856,-0.147 0.012,-1.389 -0.395,-4.036 1.104,-4.228"
     id="path991" />
  <g
     id="g1003"
     transform="translate(272.19319,14.607525)">
		<path
   fill="#8dc641"
   stroke="#036132"
   stroke-width="0.4831"
   d="M 13.756,7.029 C 14.405,6.065 14.605,4.812 14.173,3.636 13.465,1.686 11.31,0.682 9.36,1.392 7.413,2.102 6.409,4.257 7.118,6.205 c 0.711,1.95 2.866,2.954 4.813,2.243 0.181,-0.065 2.854,3.024 2.854,3.024 0.166,-0.111 0.047,0.898 0.16,0.733 1.652,-1.134 0.859,-1.831 0.838,-2.196 -0.67,-0.983 -2.108,-2.863 -2.027,-2.98 z"
   id="path993" />

		
			<radialGradient
   id="radialGradient999"
   cx="113.8604"
   cy="237.0723"
   r="4.2543998"
   gradientTransform="matrix(-0.1791,0.9839,0.9839,0.1791,-201.4103,-148.636)"
   gradientUnits="userSpaceOnUse">
			<stop
   offset="0"
   style="stop-color:#FCEE23"
   id="stop995" />

			<stop
   offset="1"
   style="stop-color:#066F3A"
   id="stop997" />

		</radialGradient>

		<circle
   opacity="0.5"
   fill="url(#SVGID_1_)"
   enable-background="new    "
   cx="10.656"
   cy="4.875"
   r="3.1589999"
   id="circle1001"
   style="fill:url(#radialGradient1053)" />

	</g>
  <path
     fill="#8dc641"
     stroke="#036132"
     stroke-width="0.4831"
     d="m 288.66419,24.591525 c -0.53,0.27 -1.065,0.556 -1.618,0.836 0.223,0.473 0.426,0.876 0.564,1.055 l -0.007,0.026 c 0.573,-0.098 1.146,-0.192 1.72,-0.293 l -0.222,-0.108 c -0.046,-0.262 -0.229,-0.861 -0.437,-1.516 z"
     id="path1005" />
  <path
     fill="#8dc641"
     stroke="#036132"
     stroke-width="0.4831"
     d="m 297.54019,27.099525 -0.184,-0.459 c 0.439,-0.672 1.559,-3.766 1.757,-3.771 2.073,-0.066 3.7,-1.799 3.634,-3.873 -0.066,-2.072 -1.8,-3.699 -3.873,-3.633 -2.072,0.066 -3.699,1.8 -3.634,3.873 0.04,1.24 0.677,2.32 1.625,2.974 0.14,0.097 -0.769,3.351 -0.841,4.058 l -0.686,0.287 c -1.039,-0.188 -2.109,-0.287 -3.203,-0.287 -0.807,0 -1.602,0.053 -2.382,0.158 l -0.431,-0.21 c -0.573,0.101 -1.146,0.195 -1.72,0.293 l -0.096,0.366 c -7.639,2.038 -13.266,9.007 -13.266,17.291 0,9.884 8.012,17.896 17.896,17.896 9.884,0 17.896,-8.012 17.896,-17.896 0,-8.001 -5.25,-14.776 -12.492,-17.067 z"
     id="path1007" />
  <circle
     fill="url(#SVGID_2_)"
     stroke="#2a9145"
     stroke-width="0.4831"
     cx="292.05518"
     cy="44.245525"
     r="17.337999"
     id="circle1009"
     style="fill:url(#radialGradient1051)" />
  <circle
     opacity="0.41"
     fill="url(#SVGID_3_)"
     enable-background="new    "
     cx="298.9772"
     cy="19.135525"
     r="3.1589999"
     id="circle1011"
     style="fill:url(#radialGradient1049)" />
  <path
     fill="url(#SVGID_4_)"
     stroke="#20331c"
     stroke-width="0.4203"
     d="m 291.15819,56.848525 c 0.219,-0.302 0.649,-0.502 1.134,-0.399 0.197,0.042 0.355,0.097 0.479,0.163 1.048,0.553 -0.289,1.863 -1.219,1.41 -0.617,-0.303 -0.658,-0.811 -0.394,-1.174 z"
     id="path1013"
     style="fill:url(#radialGradient1047)" />
  <path
     fill="#c9d3d6"
     stroke="#6c6d6d"
     stroke-width="0.4831"
     d="m 279.78319,38.740525 c 0.218,-0.225 0.461,-0.452 0.732,-0.685 5.296,-4.548 12.995,-6.686 19.594,-4.119 1.941,0.755 3.561,1.881 5.033,3.31 3.162,3.066 1.664,7.333 1.863,11.262 -0.006,-0.133 1.583,0.592 1.637,0.583 2.2,-0.372 1.611,-4.28 1.595,-5.688 -0.032,-2.743 -0.655,-5.393 -1.403,-8 -0.16,-0.561 -0.189,-0.861 -0.591,-1.372 -1.623,-2.066 -4.091,-4.222 -6.219,-5.749 -0.321,-0.23 -4.317,-2.664 -3.515,-3.108 1.235,-0.683 -1.803,-1.207 -2.378,-1.127 -0.064,0.431 0.02,0.824 0.242,1.181 -1.536,-0.469 -6.374,-1.347 -7.749,-0.226 1.301,-1.063 -2.739,-1.309 -2.618,0.756 0.365,-0.054 0.746,-0.003 1.096,-0.078 -2.943,1.732 -6.035,3.08 -8.445,5.542 -0.756,0.771 -5.115,4.938 -3.473,6.177 -0.71,1.577 -2.299,11.732 0.463,11.613 1.996,-0.086 2.002,-4.751 2.221,-6.111 0.29,-1.795 0.746,-2.955 1.915,-4.161 z"
     id="path1015" />
  <path
     fill="#c9d3d6"
     stroke="#6c6d6d"
     stroke-width="0.4831"
     d="m 308.18919,46.233525 c 0.357,0.089 0.691,0.201 0.989,0.346 2.165,1.057 0.88,2.559 0.312,4.097 -0.551,1.491 -0.393,3.359 -2.215,4.512 1.814,0.135 -0.584,2.43 -1.037,2.835 -7.378,6.591 -18.417,7.352 -26.757,1.91 -0.359,-0.234 -0.923,-0.505 -1.156,-0.875 -0.232,-0.369 -0.008,-0.965 -0.203,-1.284 -0.452,-0.736 -1.702,-0.833 -2.354,-1.522 -0.707,-0.747 -0.803,-1.707 -1.285,-2.478 -0.449,-0.718 -1.251,-0.898 -1.252,-2.003 -0.001,-0.369 0.359,-0.935 0.408,-1.369 0.053,-0.461 -0.107,-1.046 0,-1.472 0.203,-0.801 1.031,-1.253 1.75,-1.5 4.42,-1.521 9.316,-2.76 13.976,-3.399 5.018,-0.688 10.04,0.474 14.906,1.588 1.144,0.261 2.666,0.301 3.918,0.614 z"
     id="path1017" />
  <path
     fill="#b6bebf"
     d="m 291.90919,48.348525 c 1.156,0.849 2.557,0.563 3.734,1.189 0.541,0.287 0.314,1.032 1.171,1.316 1.093,0.364 1.566,0.011 2.562,-0.181 1.402,-0.271 2.774,-1.421 3.882,10e-4 0.998,1.282 -0.137,2.897 -0.938,3.938 -3.69,4.798 -10.248,7.798 -15.905,5.481 3.765,2.47 8.77,1.625 12.739,0.115 2.077,-0.791 8.108,-2.445 7.879,-5.309 -2.312,-0.477 2.164,-4.184 1.786,-6.036 -0.716,-3.507 -3.953,-0.917 -5.886,-0.287 -3.571,1.166 -7.355,-0.166 -11.024,-0.227 z"
     id="path1019" />
  <path
     fill="#ffffff"
     d="m 298.97719,45.749525 c -0.889,-0.122 -6.066,-2.324 -6.346,-0.368 1.082,0.383 2.074,-0.211 3.105,-0.11 1.015,0.099 2.201,0.336 3.241,0.478 z"
     id="path1021" />
  <path
     fill="#ffffff"
     d="m 275.25619,48.433525 c -0.224,-0.133 2.064,-1.004 2.265,-1.045 0.997,-0.206 1.993,-0.395 2.993,-0.68 2.333,-0.664 4.66,-1.368 7.053,-1.784 -1.357,0.573 -2.806,1.091 -4.199,1.572 -1.044,0.36 -2.089,0.569 -3.104,1.003 -1.53,0.655 -3.62,1.356 -4.643,2.755 0.441,-0.03 0.725,0.167 0.978,0.248 -0.783,0.34 -1.567,0.781 -2.468,0.63 -0.064,-1.101 2.589,-1.822 1.125,-2.699 z"
     id="path1023" />
  <path
     fill="#ffffff"
     d="m 279.47319,53.053525 c -1.166,-0.034 -3.199,0.725 -3.496,1.969 1.13,0.564 2.891,-1.064 3.496,-1.969 z"
     id="path1025" />
  <path
     fill="#7a7f84"
     d="m 310.08819,47.014525 c 0.088,-0.639 0.055,-1.475 -0.554,-1.734 0.073,-0.107 0.179,-0.114 0.219,-0.256 -2.429,-0.972 -0.414,-4.504 -1.896,-6.078 -0.02,1.131 0.189,2.188 0.131,3.331 -0.044,0.855 -0.627,2.676 -0.208,3.438 0.24,0.437 2.335,1.094 2.308,1.299 z"
     id="path1027" />
  <path
     fill="#7a7f84"
     d="m 275.86219,37.527525 c 0.172,1.21 1.129,-0.407 1.5,-0.75 0.741,-0.685 1.828,-1.023 2.574,-1.763 -0.058,0.073 -0.332,0.357 -0.221,0.241 -0.652,-0.382 -1.607,0.352 -2.263,0.613 -0.984,0.39 -1.598,0.578 -1.59,1.784"
     id="path1029" />
  <path
     fill="#ffffff"
     d="m 276.86219,34.402525 c -0.11,0.24 -0.16,0.469 -0.105,0.73 1.4,-0.02 1.832,-1.764 2.703,-2.511 1.071,-0.92 2.354,-1.798 3.524,-2.591 1.104,-0.748 2.413,-1.249 3.476,-1.906 0.328,-0.203 0.51,-0.103 0.814,-0.445 0.271,-0.306 -0.25,-0.542 -0.178,-0.646 0.359,-0.51 1.046,-0.823 1.596,-1.138 -0.557,0.207 -1.127,0.219 -1.1,-0.475 -0.752,-0.152 -0.454,-0.619 0.101,-0.899 -1.175,-0.276 -0.81,0.435 -0.833,0.853 -0.006,0.103 0.453,0.145 0.346,0.622 -0.062,0.272 -0.441,0.455 -0.628,0.625 -1.14,1.041 -2.661,1.729 -3.972,2.531 -2.191,1.342 -4.631,3.111 -5.869,5.375"
     id="path1031" />
  <path
     fill="#ffffff"
     d="m 293.36219,26.152525 c -0.09,-1.244 -3.916,-0.544 -3.637,0.503 0.238,0.892 3.477,-0.478 3.887,-0.753"
     id="path1033" />
  <path
     fill="#b6bebf"
     d="m 279.32019,55.860525 c 0.688,0.813 1.575,1.57 2.712,1.462 0.233,-1.014 -0.18,-1.728 -1.168,-2.005 0.285,-2.427 3.178,-1.428 4.956,-1.702 1.659,-0.255 4.036,-1.049 5.413,-2.018 -2.514,0.459 -5.282,1.245 -7.913,1.262 -1.927,0.014 -2.091,-0.402 -3.493,1.008 -0.985,0.989 -2.063,2.132 -0.007,2.744"
     id="path1035" />
  <path
     fill="#28903b"
     d="m 288.25419,35.958525 c 0.127,-0.138 -0.854,-0.233 -0.816,-0.229 -0.46,-0.054 -1.026,0.097 -1.468,0.208 -0.916,0.229 -1.873,0.627 -2.531,1.327 -0.408,0.433 -0.746,0.935 -1.191,1.337 0.857,-0.552 1.775,-1.235 2.662,-1.705 1.023,-0.541 2.246,-0.415 3.296,-0.906 0.022,-0.01 0.038,-0.021 0.048,-0.032 z"
     id="path1037" />
  <path
     fill="url(#SVGID_5_)"
     d="m 284.52419,40.263525 c -1.191,0.945 -2.234,2.176 -2.102,3.187 1.563,-1 2.48,-2.51 4.461,-2.983 1.063,-0.254 1.756,0.311 2.795,0.32 1.139,0.009 1.268,-1.067 0.5,-1.739 -0.752,-0.657 -2.266,-0.445 -3.125,-0.22 -0.631,0.166 -1.623,0.718 -2.529,1.435 z"
     id="path1039"
     style="fill:url(#radialGradient1045)" />
  <path
     fill="url(#SVGID_6_)"
     d="m 302.04819,40.263525 c 1.192,0.945 2.234,2.176 2.103,3.187 -1.563,-1 -2.479,-2.51 -4.462,-2.983 -1.063,-0.254 -1.754,0.311 -2.794,0.32 -1.139,0.009 -1.268,-1.067 -0.5,-1.739 0.752,-0.657 2.266,-0.445 3.126,-0.22 0.631,0.166 1.623,0.718 2.527,1.435 z"
     id="path1041"
     style="fill:url(#radialGradient1043)" />
</g>

	
	
	
	
	
	
	
	
		<radialGradient
   id="SVGID_2_"
   cx="24.313999"
   cy="111.9473"
   r="23.358601"
   gradientTransform="matrix(1,0,0,-1,0.0376,136.3213)"
   gradientUnits="userSpaceOnUse">
		<stop
   offset="0"
   style="stop-color:#FCEE23"
   id="stop856" />

		<stop
   offset="1"
   style="stop-color:#066F3A"
   id="stop858" />

	</radialGradient>

	
	
		<radialGradient
   id="SVGID_3_"
   cx="16.4897"
   cy="125.5479"
   r="4.2550998"
   gradientTransform="matrix(0.9995,-0.0318,-0.0318,-0.9995,15.0819,129.553)"
   gradientUnits="userSpaceOnUse">
		<stop
   offset="0"
   style="stop-color:#FCEE23"
   id="stop863" />

		<stop
   offset="1"
   style="stop-color:#066F3A"
   id="stop865" />

	</radialGradient>

	
	
		<radialGradient
   id="SVGID_4_"
   cx="19.375999"
   cy="92.875999"
   r="1.8904999"
   gradientTransform="matrix(1,0,0,-1,0.0376,136.3213)"
   gradientUnits="userSpaceOnUse">
		<stop
   offset="0"
   style="stop-color:#20331C"
   id="stop870" />

		<stop
   offset="1"
   style="stop-color:#066F3A"
   id="stop872" />

	</radialGradient>

	
	
	
	
	
	
	
	
	
	
	
	
	
	
		<radialGradient
   id="SVGID_5_"
   cx="-7.4453001"
   cy="15.4067"
   r="4.1398001"
   gradientTransform="matrix(0.9701,-0.2426,0.2426,0.9701,15.6031,8.3861)"
   gradientUnits="userSpaceOnUse">
		<stop
   offset="0"
   style="stop-color:#57585A"
   id="stop901" />

		<stop
   offset="1"
   style="stop-color:#010101"
   id="stop903" />

	</radialGradient>

	
	
		<radialGradient
   id="SVGID_6_"
   cx="18.084"
   cy="21.7896"
   r="4.1399999"
   gradientTransform="matrix(-0.9701,-0.2426,-0.2426,0.9701,52.8998,8.3861)"
   gradientUnits="userSpaceOnUse">
		<stop
   offset="0"
   style="stop-color:#57585A"
   id="stop908" />

		<stop
   offset="1"
   style="stop-color:#010101"
   id="stop910" />

	</radialGradient>

	
</g>
  </g>
</svg>
